<mxfile host="app.diagrams.net" agent="Mozilla/5.0 (Windows NT 10.0; Win64; x64) AppleWebKit/537.36 (KHTML, like Gecko) Chrome/131.0.0.0 Safari/537.36" version="25.0.3">
  <diagram name="1 oldal" id="2AxW9ZsSHd4VPSENUc5D">
    <mxGraphModel dx="3088" dy="784" grid="1" gridSize="10" guides="1" tooltips="1" connect="1" arrows="1" fold="1" page="1" pageScale="1" pageWidth="827" pageHeight="1169" math="0" shadow="0">
      <root>
        <mxCell id="0" />
        <mxCell id="1" parent="0" />
        <mxCell id="KjTRPkX4YbcrVPD_oOcE-1" value="Root" style="ellipse;whiteSpace=wrap;html=1;" parent="1" vertex="1">
          <mxGeometry x="379" y="260" width="70" height="30" as="geometry" />
        </mxCell>
        <mxCell id="KjTRPkX4YbcrVPD_oOcE-2" value="Kiadó&lt;span style=&quot;color: rgba(0, 0, 0, 0); font-family: monospace; font-size: 0px; text-align: start; text-wrap-mode: nowrap;&quot;&gt;%3CmxGraphModel%3E%3Croot%3E%3CmxCell%20id%3D%220%22%2F%3E%3CmxCell%20id%3D%221%22%20parent%3D%220%22%2F%3E%3CmxCell%20id%3D%222%22%20value%3D%22Root%22%20style%3D%22ellipse%3BwhiteSpace%3Dwrap%3Bhtml%3D1%3B%22%20vertex%3D%221%22%20parent%3D%221%22%3E%3CmxGeometry%20x%3D%22379%22%20y%3D%22370%22%20width%3D%2270%22%20height%3D%2230%22%20as%3D%22geometry%22%2F%3E%3C%2FmxCell%3E%3C%2Froot%3E%3C%2FmxGraphModel%3E&lt;/span&gt;" style="ellipse;whiteSpace=wrap;html=1;" parent="1" vertex="1">
          <mxGeometry x="-307.5" y="410" width="70" height="30" as="geometry" />
        </mxCell>
        <mxCell id="KjTRPkX4YbcrVPD_oOcE-3" value="Könyv" style="ellipse;whiteSpace=wrap;html=1;" parent="1" vertex="1">
          <mxGeometry x="-722.5" y="412.5" width="70" height="30" as="geometry" />
        </mxCell>
        <mxCell id="KjTRPkX4YbcrVPD_oOcE-4" value="Példány" style="ellipse;whiteSpace=wrap;html=1;" parent="1" vertex="1">
          <mxGeometry x="62.5" y="408.75" width="70" height="30" as="geometry" />
        </mxCell>
        <mxCell id="KjTRPkX4YbcrVPD_oOcE-5" value="Kölcsönzi" style="ellipse;whiteSpace=wrap;html=1;" parent="1" vertex="1">
          <mxGeometry x="379" y="410" width="70" height="30" as="geometry" />
        </mxCell>
        <mxCell id="KjTRPkX4YbcrVPD_oOcE-6" value="Olvasó" style="ellipse;whiteSpace=wrap;html=1;" parent="1" vertex="1">
          <mxGeometry x="710" y="406.56" width="70" height="30" as="geometry" />
        </mxCell>
        <mxCell id="KjTRPkX4YbcrVPD_oOcE-7" value="Fizetés" style="ellipse;whiteSpace=wrap;html=1;" parent="1" vertex="1">
          <mxGeometry x="1067.5" y="410.31" width="70" height="30" as="geometry" />
        </mxCell>
        <mxCell id="KjTRPkX4YbcrVPD_oOcE-8" value="Tagdíj" style="ellipse;whiteSpace=wrap;html=1;" parent="1" vertex="1">
          <mxGeometry x="1407.5" y="408.44" width="70" height="30" as="geometry" />
        </mxCell>
        <mxCell id="KjTRPkX4YbcrVPD_oOcE-13" value="" style="ellipse;whiteSpace=wrap;html=1;fillColor=none;" parent="1" vertex="1">
          <mxGeometry x="-313.75" y="403.43" width="82.5" height="43.13" as="geometry" />
        </mxCell>
        <mxCell id="KjTRPkX4YbcrVPD_oOcE-14" value="" style="ellipse;whiteSpace=wrap;html=1;fillColor=none;" parent="1" vertex="1">
          <mxGeometry x="-730" y="407.5" width="85" height="40" as="geometry" />
        </mxCell>
        <mxCell id="KjTRPkX4YbcrVPD_oOcE-15" value="" style="ellipse;whiteSpace=wrap;html=1;fillColor=none;" parent="1" vertex="1">
          <mxGeometry x="55" y="402.5" width="85" height="42.5" as="geometry" />
        </mxCell>
        <mxCell id="KjTRPkX4YbcrVPD_oOcE-16" value="" style="ellipse;whiteSpace=wrap;html=1;fillColor=none;" parent="1" vertex="1">
          <mxGeometry x="373.25" y="404.06" width="81.5" height="42.5" as="geometry" />
        </mxCell>
        <mxCell id="KjTRPkX4YbcrVPD_oOcE-17" value="" style="ellipse;whiteSpace=wrap;html=1;fillColor=none;" parent="1" vertex="1">
          <mxGeometry x="702.5" y="401.56" width="85" height="40" as="geometry" />
        </mxCell>
        <mxCell id="KjTRPkX4YbcrVPD_oOcE-18" value="" style="ellipse;whiteSpace=wrap;html=1;fillColor=none;" parent="1" vertex="1">
          <mxGeometry x="1060" y="404.06" width="85" height="42.5" as="geometry" />
        </mxCell>
        <mxCell id="KjTRPkX4YbcrVPD_oOcE-19" value="" style="ellipse;whiteSpace=wrap;html=1;fillColor=none;" parent="1" vertex="1">
          <mxGeometry x="1400" y="402.5" width="85" height="42.5" as="geometry" />
        </mxCell>
        <mxCell id="KjTRPkX4YbcrVPD_oOcE-20" value="" style="endArrow=none;html=1;rounded=0;" parent="1" source="KjTRPkX4YbcrVPD_oOcE-16" target="KjTRPkX4YbcrVPD_oOcE-1" edge="1">
          <mxGeometry width="50" height="50" relative="1" as="geometry">
            <mxPoint x="370" y="500" as="sourcePoint" />
            <mxPoint x="420" y="450" as="targetPoint" />
          </mxGeometry>
        </mxCell>
        <mxCell id="KjTRPkX4YbcrVPD_oOcE-21" value="" style="endArrow=none;html=1;rounded=0;" parent="1" source="KjTRPkX4YbcrVPD_oOcE-13" target="KjTRPkX4YbcrVPD_oOcE-1" edge="1">
          <mxGeometry width="50" height="50" relative="1" as="geometry">
            <mxPoint x="360" y="470" as="sourcePoint" />
            <mxPoint x="410" y="420" as="targetPoint" />
          </mxGeometry>
        </mxCell>
        <mxCell id="KjTRPkX4YbcrVPD_oOcE-22" value="" style="endArrow=none;html=1;rounded=0;" parent="1" source="KjTRPkX4YbcrVPD_oOcE-15" target="KjTRPkX4YbcrVPD_oOcE-1" edge="1">
          <mxGeometry width="50" height="50" relative="1" as="geometry">
            <mxPoint x="360" y="470" as="sourcePoint" />
            <mxPoint x="410" y="420" as="targetPoint" />
          </mxGeometry>
        </mxCell>
        <mxCell id="KjTRPkX4YbcrVPD_oOcE-23" value="" style="endArrow=none;html=1;rounded=0;" parent="1" source="KjTRPkX4YbcrVPD_oOcE-14" target="KjTRPkX4YbcrVPD_oOcE-1" edge="1">
          <mxGeometry width="50" height="50" relative="1" as="geometry">
            <mxPoint x="60" y="450" as="sourcePoint" />
            <mxPoint x="110" y="400" as="targetPoint" />
          </mxGeometry>
        </mxCell>
        <mxCell id="KjTRPkX4YbcrVPD_oOcE-24" value="" style="endArrow=none;html=1;rounded=0;" parent="1" source="KjTRPkX4YbcrVPD_oOcE-1" target="KjTRPkX4YbcrVPD_oOcE-17" edge="1">
          <mxGeometry width="50" height="50" relative="1" as="geometry">
            <mxPoint x="390" y="450" as="sourcePoint" />
            <mxPoint x="440" y="400" as="targetPoint" />
          </mxGeometry>
        </mxCell>
        <mxCell id="KjTRPkX4YbcrVPD_oOcE-25" value="" style="endArrow=none;html=1;rounded=0;" parent="1" source="KjTRPkX4YbcrVPD_oOcE-18" target="KjTRPkX4YbcrVPD_oOcE-1" edge="1">
          <mxGeometry width="50" height="50" relative="1" as="geometry">
            <mxPoint x="390" y="450" as="sourcePoint" />
            <mxPoint x="440" y="400" as="targetPoint" />
          </mxGeometry>
        </mxCell>
        <mxCell id="KjTRPkX4YbcrVPD_oOcE-26" value="" style="endArrow=none;html=1;rounded=0;" parent="1" source="KjTRPkX4YbcrVPD_oOcE-1" target="KjTRPkX4YbcrVPD_oOcE-19" edge="1">
          <mxGeometry width="50" height="50" relative="1" as="geometry">
            <mxPoint x="630" y="450" as="sourcePoint" />
            <mxPoint x="680" y="400" as="targetPoint" />
          </mxGeometry>
        </mxCell>
        <mxCell id="KjTRPkX4YbcrVPD_oOcE-27" value="Kiadó_ID" style="rhombus;whiteSpace=wrap;html=1;fontSize=8;" parent="1" vertex="1">
          <mxGeometry x="-163.75" y="400" width="50" height="50" as="geometry" />
        </mxCell>
        <mxCell id="KjTRPkX4YbcrVPD_oOcE-28" value="" style="endArrow=none;html=1;rounded=0;" parent="1" source="KjTRPkX4YbcrVPD_oOcE-13" target="KjTRPkX4YbcrVPD_oOcE-27" edge="1">
          <mxGeometry width="50" height="50" relative="1" as="geometry">
            <mxPoint x="-230" y="450" as="sourcePoint" />
            <mxPoint x="-180" y="400" as="targetPoint" />
          </mxGeometry>
        </mxCell>
        <mxCell id="KjTRPkX4YbcrVPD_oOcE-29" value="Leltari_szam" style="rhombus;whiteSpace=wrap;html=1;fontSize=7;" parent="1" vertex="1">
          <mxGeometry x="200" y="398.75" width="50" height="50" as="geometry" />
        </mxCell>
        <mxCell id="KjTRPkX4YbcrVPD_oOcE-30" value="" style="endArrow=none;html=1;rounded=0;" parent="1" source="KjTRPkX4YbcrVPD_oOcE-15" target="KjTRPkX4YbcrVPD_oOcE-29" edge="1">
          <mxGeometry width="50" height="50" relative="1" as="geometry">
            <mxPoint x="160" y="450" as="sourcePoint" />
            <mxPoint x="210" y="400" as="targetPoint" />
          </mxGeometry>
        </mxCell>
        <mxCell id="KjTRPkX4YbcrVPD_oOcE-31" value="Könyv_ID" style="rhombus;whiteSpace=wrap;html=1;fontSize=8;" parent="1" vertex="1">
          <mxGeometry x="-940" y="402.5" width="50" height="50" as="geometry" />
        </mxCell>
        <mxCell id="KjTRPkX4YbcrVPD_oOcE-32" value="Kiadja" style="rhombus;whiteSpace=wrap;html=1;fontSize=8;" parent="1" vertex="1">
          <mxGeometry x="-380" y="400" width="50" height="50" as="geometry" />
        </mxCell>
        <mxCell id="KjTRPkX4YbcrVPD_oOcE-33" value="Székhely" style="ellipse;whiteSpace=wrap;html=1;" parent="1" vertex="1">
          <mxGeometry x="-307.5" y="520" width="70" height="30" as="geometry" />
        </mxCell>
        <mxCell id="KjTRPkX4YbcrVPD_oOcE-34" value="Telefonszám" style="ellipse;whiteSpace=wrap;html=1;fontSize=11;" parent="1" vertex="1">
          <mxGeometry x="-190" y="520" width="70" height="30" as="geometry" />
        </mxCell>
        <mxCell id="KjTRPkX4YbcrVPD_oOcE-35" value="Név" style="ellipse;whiteSpace=wrap;html=1;" parent="1" vertex="1">
          <mxGeometry x="-420" y="520" width="70" height="30" as="geometry" />
        </mxCell>
        <mxCell id="KjTRPkX4YbcrVPD_oOcE-36" value="" style="ellipse;whiteSpace=wrap;html=1;fillColor=none;" parent="1" vertex="1">
          <mxGeometry x="-196.25" y="513.75" width="82.5" height="42.5" as="geometry" />
        </mxCell>
        <mxCell id="KjTRPkX4YbcrVPD_oOcE-40" value="" style="endArrow=none;html=1;rounded=0;" parent="1" source="KjTRPkX4YbcrVPD_oOcE-35" target="KjTRPkX4YbcrVPD_oOcE-13" edge="1">
          <mxGeometry width="50" height="50" relative="1" as="geometry">
            <mxPoint x="-300" y="570" as="sourcePoint" />
            <mxPoint x="-250" y="520" as="targetPoint" />
          </mxGeometry>
        </mxCell>
        <mxCell id="KjTRPkX4YbcrVPD_oOcE-41" value="" style="endArrow=none;html=1;rounded=0;" parent="1" source="KjTRPkX4YbcrVPD_oOcE-33" target="KjTRPkX4YbcrVPD_oOcE-13" edge="1">
          <mxGeometry width="50" height="50" relative="1" as="geometry">
            <mxPoint x="-300" y="570" as="sourcePoint" />
            <mxPoint x="-250" y="520" as="targetPoint" />
          </mxGeometry>
        </mxCell>
        <mxCell id="KjTRPkX4YbcrVPD_oOcE-42" value="" style="endArrow=none;html=1;rounded=0;" parent="1" source="KjTRPkX4YbcrVPD_oOcE-36" target="KjTRPkX4YbcrVPD_oOcE-13" edge="1">
          <mxGeometry width="50" height="50" relative="1" as="geometry">
            <mxPoint x="-300" y="570" as="sourcePoint" />
            <mxPoint x="-250" y="520" as="targetPoint" />
          </mxGeometry>
        </mxCell>
        <mxCell id="KjTRPkX4YbcrVPD_oOcE-43" value="" style="rounded=0;whiteSpace=wrap;html=1;" parent="1" vertex="1">
          <mxGeometry x="-405" y="585" width="40" height="60" as="geometry" />
        </mxCell>
        <mxCell id="KjTRPkX4YbcrVPD_oOcE-44" value="" style="rounded=0;whiteSpace=wrap;html=1;" parent="1" vertex="1">
          <mxGeometry x="-292.5" y="585" width="40" height="60" as="geometry" />
        </mxCell>
        <mxCell id="KjTRPkX4YbcrVPD_oOcE-45" value="" style="rounded=0;whiteSpace=wrap;html=1;" parent="1" vertex="1">
          <mxGeometry x="-175" y="585" width="40" height="60" as="geometry" />
        </mxCell>
        <mxCell id="KjTRPkX4YbcrVPD_oOcE-46" value="" style="endArrow=none;html=1;rounded=0;" parent="1" source="KjTRPkX4YbcrVPD_oOcE-44" target="KjTRPkX4YbcrVPD_oOcE-33" edge="1">
          <mxGeometry width="50" height="50" relative="1" as="geometry">
            <mxPoint x="-300" y="600" as="sourcePoint" />
            <mxPoint x="-250" y="550" as="targetPoint" />
          </mxGeometry>
        </mxCell>
        <mxCell id="KjTRPkX4YbcrVPD_oOcE-47" value="" style="endArrow=none;html=1;rounded=0;" parent="1" source="KjTRPkX4YbcrVPD_oOcE-43" target="KjTRPkX4YbcrVPD_oOcE-35" edge="1">
          <mxGeometry width="50" height="50" relative="1" as="geometry">
            <mxPoint x="-300" y="600" as="sourcePoint" />
            <mxPoint x="-250" y="550" as="targetPoint" />
          </mxGeometry>
        </mxCell>
        <mxCell id="KjTRPkX4YbcrVPD_oOcE-48" value="" style="endArrow=none;html=1;rounded=0;" parent="1" source="KjTRPkX4YbcrVPD_oOcE-45" target="KjTRPkX4YbcrVPD_oOcE-36" edge="1">
          <mxGeometry width="50" height="50" relative="1" as="geometry">
            <mxPoint x="-300" y="600" as="sourcePoint" />
            <mxPoint x="-250" y="550" as="targetPoint" />
          </mxGeometry>
        </mxCell>
        <mxCell id="KjTRPkX4YbcrVPD_oOcE-49" value="" style="endArrow=none;html=1;rounded=0;" parent="1" source="KjTRPkX4YbcrVPD_oOcE-13" target="KjTRPkX4YbcrVPD_oOcE-32" edge="1">
          <mxGeometry width="50" height="50" relative="1" as="geometry">
            <mxPoint x="-430" y="480" as="sourcePoint" />
            <mxPoint x="-380" y="430" as="targetPoint" />
          </mxGeometry>
        </mxCell>
        <mxCell id="KjTRPkX4YbcrVPD_oOcE-50" value="" style="endArrow=none;html=1;rounded=0;" parent="1" source="KjTRPkX4YbcrVPD_oOcE-14" target="KjTRPkX4YbcrVPD_oOcE-31" edge="1">
          <mxGeometry width="50" height="50" relative="1" as="geometry">
            <mxPoint x="-530" y="480" as="sourcePoint" />
            <mxPoint x="-680" y="390" as="targetPoint" />
          </mxGeometry>
        </mxCell>
        <mxCell id="KjTRPkX4YbcrVPD_oOcE-53" value="Kiadás éve" style="ellipse;whiteSpace=wrap;html=1;" parent="1" vertex="1">
          <mxGeometry x="-550" y="520" width="70" height="30" as="geometry" />
        </mxCell>
        <mxCell id="KjTRPkX4YbcrVPD_oOcE-54" value="" style="rounded=0;whiteSpace=wrap;html=1;" parent="1" vertex="1">
          <mxGeometry x="-535" y="585" width="40" height="60" as="geometry" />
        </mxCell>
        <mxCell id="KjTRPkX4YbcrVPD_oOcE-55" value="" style="endArrow=none;html=1;rounded=0;" parent="1" source="KjTRPkX4YbcrVPD_oOcE-54" target="KjTRPkX4YbcrVPD_oOcE-53" edge="1">
          <mxGeometry width="50" height="50" relative="1" as="geometry">
            <mxPoint x="-542.5" y="600" as="sourcePoint" />
            <mxPoint x="-492.5" y="550" as="targetPoint" />
          </mxGeometry>
        </mxCell>
        <mxCell id="KjTRPkX4YbcrVPD_oOcE-56" value="Kiadó_ID" style="ellipse;whiteSpace=wrap;html=1;" parent="1" vertex="1">
          <mxGeometry x="-663" y="520" width="70" height="30" as="geometry" />
        </mxCell>
        <mxCell id="KjTRPkX4YbcrVPD_oOcE-57" value="" style="rounded=0;whiteSpace=wrap;html=1;" parent="1" vertex="1">
          <mxGeometry x="-648" y="585" width="40" height="60" as="geometry" />
        </mxCell>
        <mxCell id="KjTRPkX4YbcrVPD_oOcE-58" value="" style="endArrow=none;html=1;rounded=0;" parent="1" source="KjTRPkX4YbcrVPD_oOcE-57" target="KjTRPkX4YbcrVPD_oOcE-56" edge="1">
          <mxGeometry width="50" height="50" relative="1" as="geometry">
            <mxPoint x="-655.5" y="600" as="sourcePoint" />
            <mxPoint x="-605.5" y="550" as="targetPoint" />
          </mxGeometry>
        </mxCell>
        <mxCell id="KjTRPkX4YbcrVPD_oOcE-59" value="Szerző" style="ellipse;whiteSpace=wrap;html=1;" parent="1" vertex="1">
          <mxGeometry x="-780" y="520" width="70" height="30" as="geometry" />
        </mxCell>
        <mxCell id="KjTRPkX4YbcrVPD_oOcE-60" value="" style="rounded=0;whiteSpace=wrap;html=1;" parent="1" vertex="1">
          <mxGeometry x="-765" y="585" width="40" height="60" as="geometry" />
        </mxCell>
        <mxCell id="KjTRPkX4YbcrVPD_oOcE-61" value="" style="endArrow=none;html=1;rounded=0;" parent="1" source="KjTRPkX4YbcrVPD_oOcE-60" target="KjTRPkX4YbcrVPD_oOcE-59" edge="1">
          <mxGeometry width="50" height="50" relative="1" as="geometry">
            <mxPoint x="-772.5" y="600" as="sourcePoint" />
            <mxPoint x="-722.5" y="550" as="targetPoint" />
          </mxGeometry>
        </mxCell>
        <mxCell id="KjTRPkX4YbcrVPD_oOcE-64" value="Cím" style="ellipse;whiteSpace=wrap;html=1;" parent="1" vertex="1">
          <mxGeometry x="-890" y="520" width="70" height="30" as="geometry" />
        </mxCell>
        <mxCell id="KjTRPkX4YbcrVPD_oOcE-65" value="" style="rounded=0;whiteSpace=wrap;html=1;" parent="1" vertex="1">
          <mxGeometry x="-875" y="585" width="40" height="60" as="geometry" />
        </mxCell>
        <mxCell id="KjTRPkX4YbcrVPD_oOcE-66" value="" style="endArrow=none;html=1;rounded=0;" parent="1" source="KjTRPkX4YbcrVPD_oOcE-65" target="KjTRPkX4YbcrVPD_oOcE-64" edge="1">
          <mxGeometry width="50" height="50" relative="1" as="geometry">
            <mxPoint x="-882.5" y="600" as="sourcePoint" />
            <mxPoint x="-832.5" y="550" as="targetPoint" />
          </mxGeometry>
        </mxCell>
        <mxCell id="KjTRPkX4YbcrVPD_oOcE-67" value="" style="endArrow=none;html=1;rounded=0;" parent="1" source="KjTRPkX4YbcrVPD_oOcE-14" target="KjTRPkX4YbcrVPD_oOcE-56" edge="1">
          <mxGeometry width="50" height="50" relative="1" as="geometry">
            <mxPoint x="-720" y="570" as="sourcePoint" />
            <mxPoint x="-670" y="520" as="targetPoint" />
          </mxGeometry>
        </mxCell>
        <mxCell id="KjTRPkX4YbcrVPD_oOcE-68" value="" style="endArrow=none;html=1;rounded=0;" parent="1" source="KjTRPkX4YbcrVPD_oOcE-59" target="KjTRPkX4YbcrVPD_oOcE-14" edge="1">
          <mxGeometry width="50" height="50" relative="1" as="geometry">
            <mxPoint x="-720" y="570" as="sourcePoint" />
            <mxPoint x="-670" y="520" as="targetPoint" />
          </mxGeometry>
        </mxCell>
        <mxCell id="KjTRPkX4YbcrVPD_oOcE-69" value="" style="endArrow=none;html=1;rounded=0;" parent="1" source="KjTRPkX4YbcrVPD_oOcE-64" target="KjTRPkX4YbcrVPD_oOcE-14" edge="1">
          <mxGeometry width="50" height="50" relative="1" as="geometry">
            <mxPoint x="-720" y="570" as="sourcePoint" />
            <mxPoint x="-670" y="520" as="targetPoint" />
          </mxGeometry>
        </mxCell>
        <mxCell id="KjTRPkX4YbcrVPD_oOcE-70" value="" style="endArrow=none;html=1;rounded=0;" parent="1" source="KjTRPkX4YbcrVPD_oOcE-53" target="KjTRPkX4YbcrVPD_oOcE-14" edge="1">
          <mxGeometry width="50" height="50" relative="1" as="geometry">
            <mxPoint x="-720" y="570" as="sourcePoint" />
            <mxPoint x="-670" y="520" as="targetPoint" />
          </mxGeometry>
        </mxCell>
        <mxCell id="KjTRPkX4YbcrVPD_oOcE-71" value="Példánya" style="rhombus;whiteSpace=wrap;html=1;fontSize=8;" parent="1" vertex="1">
          <mxGeometry x="-80" y="400.31" width="50" height="50" as="geometry" />
        </mxCell>
        <mxCell id="KjTRPkX4YbcrVPD_oOcE-72" value="" style="endArrow=none;html=1;rounded=0;" parent="1" source="KjTRPkX4YbcrVPD_oOcE-71" target="KjTRPkX4YbcrVPD_oOcE-15" edge="1">
          <mxGeometry width="50" height="50" relative="1" as="geometry">
            <mxPoint x="90" y="530" as="sourcePoint" />
            <mxPoint x="140" y="480" as="targetPoint" />
          </mxGeometry>
        </mxCell>
        <mxCell id="KjTRPkX4YbcrVPD_oOcE-74" value="Kölcsönözhető" style="ellipse;whiteSpace=wrap;html=1;fontSize=9;" parent="1" vertex="1">
          <mxGeometry x="-30" y="520" width="70" height="30" as="geometry" />
        </mxCell>
        <mxCell id="KjTRPkX4YbcrVPD_oOcE-75" value="" style="rounded=0;whiteSpace=wrap;html=1;" parent="1" vertex="1">
          <mxGeometry x="-15" y="585" width="40" height="60" as="geometry" />
        </mxCell>
        <mxCell id="KjTRPkX4YbcrVPD_oOcE-76" value="" style="endArrow=none;html=1;rounded=0;" parent="1" source="KjTRPkX4YbcrVPD_oOcE-75" target="KjTRPkX4YbcrVPD_oOcE-74" edge="1">
          <mxGeometry width="50" height="50" relative="1" as="geometry">
            <mxPoint x="-22.5" y="600" as="sourcePoint" />
            <mxPoint x="27.5" y="550" as="targetPoint" />
          </mxGeometry>
        </mxCell>
        <mxCell id="KjTRPkX4YbcrVPD_oOcE-77" value="Állapot" style="ellipse;whiteSpace=wrap;html=1;" parent="1" vertex="1">
          <mxGeometry x="62.5" y="520" width="70" height="30" as="geometry" />
        </mxCell>
        <mxCell id="KjTRPkX4YbcrVPD_oOcE-78" value="" style="rounded=0;whiteSpace=wrap;html=1;" parent="1" vertex="1">
          <mxGeometry x="77.5" y="585" width="40" height="60" as="geometry" />
        </mxCell>
        <mxCell id="KjTRPkX4YbcrVPD_oOcE-79" value="" style="endArrow=none;html=1;rounded=0;" parent="1" source="KjTRPkX4YbcrVPD_oOcE-78" target="KjTRPkX4YbcrVPD_oOcE-77" edge="1">
          <mxGeometry width="50" height="50" relative="1" as="geometry">
            <mxPoint x="70" y="600" as="sourcePoint" />
            <mxPoint x="120" y="550" as="targetPoint" />
          </mxGeometry>
        </mxCell>
        <mxCell id="KjTRPkX4YbcrVPD_oOcE-80" value="Polcszám" style="ellipse;whiteSpace=wrap;html=1;" parent="1" vertex="1">
          <mxGeometry x="162.5" y="520" width="70" height="30" as="geometry" />
        </mxCell>
        <mxCell id="KjTRPkX4YbcrVPD_oOcE-81" value="" style="rounded=0;whiteSpace=wrap;html=1;" parent="1" vertex="1">
          <mxGeometry x="177.5" y="585" width="40" height="60" as="geometry" />
        </mxCell>
        <mxCell id="KjTRPkX4YbcrVPD_oOcE-82" value="" style="endArrow=none;html=1;rounded=0;" parent="1" source="KjTRPkX4YbcrVPD_oOcE-81" target="KjTRPkX4YbcrVPD_oOcE-80" edge="1">
          <mxGeometry width="50" height="50" relative="1" as="geometry">
            <mxPoint x="170" y="600" as="sourcePoint" />
            <mxPoint x="220" y="550" as="targetPoint" />
          </mxGeometry>
        </mxCell>
        <mxCell id="KjTRPkX4YbcrVPD_oOcE-86" value="" style="endArrow=none;html=1;rounded=0;" parent="1" source="KjTRPkX4YbcrVPD_oOcE-15" target="KjTRPkX4YbcrVPD_oOcE-77" edge="1">
          <mxGeometry width="50" height="50" relative="1" as="geometry">
            <mxPoint x="80" y="570" as="sourcePoint" />
            <mxPoint x="130" y="520" as="targetPoint" />
          </mxGeometry>
        </mxCell>
        <mxCell id="KjTRPkX4YbcrVPD_oOcE-87" value="" style="endArrow=none;html=1;rounded=0;" parent="1" source="KjTRPkX4YbcrVPD_oOcE-15" target="KjTRPkX4YbcrVPD_oOcE-80" edge="1">
          <mxGeometry width="50" height="50" relative="1" as="geometry">
            <mxPoint x="80" y="570" as="sourcePoint" />
            <mxPoint x="130" y="520" as="targetPoint" />
          </mxGeometry>
        </mxCell>
        <mxCell id="KjTRPkX4YbcrVPD_oOcE-88" value="" style="endArrow=none;html=1;rounded=0;" parent="1" source="KjTRPkX4YbcrVPD_oOcE-74" target="KjTRPkX4YbcrVPD_oOcE-15" edge="1">
          <mxGeometry width="50" height="50" relative="1" as="geometry">
            <mxPoint x="80" y="570" as="sourcePoint" />
            <mxPoint x="130" y="520" as="targetPoint" />
          </mxGeometry>
        </mxCell>
        <mxCell id="KjTRPkX4YbcrVPD_oOcE-90" value="Dátum" style="ellipse;whiteSpace=wrap;html=1;fontSize=11;" parent="1" vertex="1">
          <mxGeometry x="290" y="520" width="70" height="30" as="geometry" />
        </mxCell>
        <mxCell id="KjTRPkX4YbcrVPD_oOcE-91" value="" style="rounded=0;whiteSpace=wrap;html=1;" parent="1" vertex="1">
          <mxGeometry x="305" y="585" width="40" height="60" as="geometry" />
        </mxCell>
        <mxCell id="KjTRPkX4YbcrVPD_oOcE-92" value="" style="endArrow=none;html=1;rounded=0;" parent="1" source="KjTRPkX4YbcrVPD_oOcE-91" target="KjTRPkX4YbcrVPD_oOcE-90" edge="1">
          <mxGeometry width="50" height="50" relative="1" as="geometry">
            <mxPoint x="297.5" y="600" as="sourcePoint" />
            <mxPoint x="347.5" y="550" as="targetPoint" />
          </mxGeometry>
        </mxCell>
        <mxCell id="KjTRPkX4YbcrVPD_oOcE-93" value="Visszahozva" style="ellipse;whiteSpace=wrap;html=1;fontSize=10;" parent="1" vertex="1">
          <mxGeometry x="382.5" y="520" width="70" height="30" as="geometry" />
        </mxCell>
        <mxCell id="KjTRPkX4YbcrVPD_oOcE-94" value="" style="rounded=0;whiteSpace=wrap;html=1;" parent="1" vertex="1">
          <mxGeometry x="397.5" y="585" width="40" height="60" as="geometry" />
        </mxCell>
        <mxCell id="KjTRPkX4YbcrVPD_oOcE-95" value="" style="endArrow=none;html=1;rounded=0;" parent="1" source="KjTRPkX4YbcrVPD_oOcE-94" target="KjTRPkX4YbcrVPD_oOcE-93" edge="1">
          <mxGeometry width="50" height="50" relative="1" as="geometry">
            <mxPoint x="390" y="600" as="sourcePoint" />
            <mxPoint x="440" y="550" as="targetPoint" />
          </mxGeometry>
        </mxCell>
        <mxCell id="KjTRPkX4YbcrVPD_oOcE-96" value="Büntetés" style="ellipse;whiteSpace=wrap;html=1;fontSize=11;" parent="1" vertex="1">
          <mxGeometry x="482.5" y="520" width="70" height="30" as="geometry" />
        </mxCell>
        <mxCell id="KjTRPkX4YbcrVPD_oOcE-97" value="" style="rounded=0;whiteSpace=wrap;html=1;" parent="1" vertex="1">
          <mxGeometry x="497.5" y="585" width="40" height="60" as="geometry" />
        </mxCell>
        <mxCell id="KjTRPkX4YbcrVPD_oOcE-98" value="" style="endArrow=none;html=1;rounded=0;" parent="1" source="KjTRPkX4YbcrVPD_oOcE-97" target="KjTRPkX4YbcrVPD_oOcE-96" edge="1">
          <mxGeometry width="50" height="50" relative="1" as="geometry">
            <mxPoint x="490" y="600" as="sourcePoint" />
            <mxPoint x="540" y="550" as="targetPoint" />
          </mxGeometry>
        </mxCell>
        <mxCell id="KjTRPkX4YbcrVPD_oOcE-99" value="Kölcsönzés_ID" style="rhombus;whiteSpace=wrap;html=1;fontSize=6;" parent="1" vertex="1">
          <mxGeometry x="492.5" y="400" width="50" height="50" as="geometry" />
        </mxCell>
        <mxCell id="KjTRPkX4YbcrVPD_oOcE-109" value="" style="edgeStyle=segmentEdgeStyle;endArrow=classic;html=1;curved=0;rounded=0;endSize=8;startSize=8;dashed=1;" parent="1" source="KjTRPkX4YbcrVPD_oOcE-32" target="KjTRPkX4YbcrVPD_oOcE-31" edge="1">
          <mxGeometry width="50" height="50" relative="1" as="geometry">
            <mxPoint x="-720" y="540" as="sourcePoint" />
            <mxPoint x="-670" y="490" as="targetPoint" />
            <Array as="points">
              <mxPoint x="-440" y="425" />
              <mxPoint x="-440" y="740" />
              <mxPoint x="-915" y="740" />
            </Array>
          </mxGeometry>
        </mxCell>
        <mxCell id="KjTRPkX4YbcrVPD_oOcE-110" value="" style="edgeStyle=segmentEdgeStyle;endArrow=classic;html=1;curved=0;rounded=0;endSize=8;startSize=8;dashed=1;" parent="1" source="KjTRPkX4YbcrVPD_oOcE-71" target="KjTRPkX4YbcrVPD_oOcE-31" edge="1">
          <mxGeometry width="50" height="50" relative="1" as="geometry">
            <mxPoint x="-720" y="540" as="sourcePoint" />
            <mxPoint x="-670" y="490" as="targetPoint" />
            <Array as="points">
              <mxPoint x="-55" y="830" />
              <mxPoint x="-970" y="830" />
              <mxPoint x="-970" y="428" />
            </Array>
          </mxGeometry>
        </mxCell>
        <mxCell id="KjTRPkX4YbcrVPD_oOcE-111" value="" style="edgeStyle=segmentEdgeStyle;endArrow=classic;html=1;curved=0;rounded=0;endSize=8;startSize=8;dashed=1;" parent="1" source="KjTRPkX4YbcrVPD_oOcE-99" target="KjTRPkX4YbcrVPD_oOcE-119" edge="1">
          <mxGeometry width="50" height="50" relative="1" as="geometry">
            <mxPoint x="542.5" y="452.5" as="sourcePoint" />
            <mxPoint x="660" y="490" as="targetPoint" />
            <Array as="points">
              <mxPoint x="550" y="424" />
              <mxPoint x="550" y="424" />
            </Array>
          </mxGeometry>
        </mxCell>
        <mxCell id="KjTRPkX4YbcrVPD_oOcE-112" value="" style="endArrow=none;html=1;rounded=0;" parent="1" source="KjTRPkX4YbcrVPD_oOcE-90" target="KjTRPkX4YbcrVPD_oOcE-16" edge="1">
          <mxGeometry width="50" height="50" relative="1" as="geometry">
            <mxPoint x="220" y="540" as="sourcePoint" />
            <mxPoint x="270" y="490" as="targetPoint" />
          </mxGeometry>
        </mxCell>
        <mxCell id="KjTRPkX4YbcrVPD_oOcE-113" value="" style="endArrow=none;html=1;rounded=0;" parent="1" source="KjTRPkX4YbcrVPD_oOcE-93" target="KjTRPkX4YbcrVPD_oOcE-16" edge="1">
          <mxGeometry width="50" height="50" relative="1" as="geometry">
            <mxPoint x="220" y="540" as="sourcePoint" />
            <mxPoint x="270" y="490" as="targetPoint" />
          </mxGeometry>
        </mxCell>
        <mxCell id="KjTRPkX4YbcrVPD_oOcE-114" value="" style="endArrow=none;html=1;rounded=0;" parent="1" source="KjTRPkX4YbcrVPD_oOcE-96" target="KjTRPkX4YbcrVPD_oOcE-16" edge="1">
          <mxGeometry width="50" height="50" relative="1" as="geometry">
            <mxPoint x="220" y="540" as="sourcePoint" />
            <mxPoint x="270" y="490" as="targetPoint" />
          </mxGeometry>
        </mxCell>
        <mxCell id="KjTRPkX4YbcrVPD_oOcE-115" value="" style="endArrow=none;html=1;rounded=0;" parent="1" source="KjTRPkX4YbcrVPD_oOcE-99" target="KjTRPkX4YbcrVPD_oOcE-16" edge="1">
          <mxGeometry width="50" height="50" relative="1" as="geometry">
            <mxPoint x="500" y="540" as="sourcePoint" />
            <mxPoint x="550" y="490" as="targetPoint" />
          </mxGeometry>
        </mxCell>
        <mxCell id="KjTRPkX4YbcrVPD_oOcE-116" value="Leltari_szam" style="rhombus;whiteSpace=wrap;html=1;fontSize=7;" parent="1" vertex="1">
          <mxGeometry x="295" y="400.31" width="50" height="50" as="geometry" />
        </mxCell>
        <mxCell id="KjTRPkX4YbcrVPD_oOcE-117" value="" style="endArrow=none;html=1;rounded=0;" parent="1" source="KjTRPkX4YbcrVPD_oOcE-116" target="KjTRPkX4YbcrVPD_oOcE-16" edge="1">
          <mxGeometry width="50" height="50" relative="1" as="geometry">
            <mxPoint x="380" y="540" as="sourcePoint" />
            <mxPoint x="430" y="490" as="targetPoint" />
          </mxGeometry>
        </mxCell>
        <mxCell id="KjTRPkX4YbcrVPD_oOcE-118" value="" style="edgeStyle=segmentEdgeStyle;endArrow=classic;html=1;curved=0;rounded=0;endSize=8;startSize=8;dashed=1;" parent="1" source="KjTRPkX4YbcrVPD_oOcE-116" target="KjTRPkX4YbcrVPD_oOcE-29" edge="1">
          <mxGeometry width="50" height="50" relative="1" as="geometry">
            <mxPoint x="503" y="435" as="sourcePoint" />
            <mxPoint x="490" y="370" as="targetPoint" />
          </mxGeometry>
        </mxCell>
        <mxCell id="KjTRPkX4YbcrVPD_oOcE-119" value="Olvasó_ID" style="rhombus;whiteSpace=wrap;html=1;fontSize=8;" parent="1" vertex="1">
          <mxGeometry x="632.5" y="396.56" width="50" height="50" as="geometry" />
        </mxCell>
        <mxCell id="KjTRPkX4YbcrVPD_oOcE-120" value="" style="endArrow=none;html=1;rounded=0;" parent="1" source="KjTRPkX4YbcrVPD_oOcE-119" target="KjTRPkX4YbcrVPD_oOcE-17" edge="1">
          <mxGeometry width="50" height="50" relative="1" as="geometry">
            <mxPoint x="582.5" y="487.81" as="sourcePoint" />
            <mxPoint x="632.5" y="437.81" as="targetPoint" />
          </mxGeometry>
        </mxCell>
        <mxCell id="KjTRPkX4YbcrVPD_oOcE-124" value="Lakcím" style="ellipse;whiteSpace=wrap;html=1;fontSize=10;" parent="1" vertex="1">
          <mxGeometry x="710" y="520" width="70" height="30" as="geometry" />
        </mxCell>
        <mxCell id="KjTRPkX4YbcrVPD_oOcE-125" value="" style="rounded=0;whiteSpace=wrap;html=1;" parent="1" vertex="1">
          <mxGeometry x="725" y="585" width="40" height="60" as="geometry" />
        </mxCell>
        <mxCell id="KjTRPkX4YbcrVPD_oOcE-126" value="" style="endArrow=none;html=1;rounded=0;" parent="1" source="KjTRPkX4YbcrVPD_oOcE-125" target="KjTRPkX4YbcrVPD_oOcE-124" edge="1">
          <mxGeometry width="50" height="50" relative="1" as="geometry">
            <mxPoint x="717.5" y="600" as="sourcePoint" />
            <mxPoint x="767.5" y="550" as="targetPoint" />
          </mxGeometry>
        </mxCell>
        <mxCell id="KjTRPkX4YbcrVPD_oOcE-127" value="Név" style="ellipse;whiteSpace=wrap;html=1;fontSize=11;" parent="1" vertex="1">
          <mxGeometry x="827" y="520" width="70" height="30" as="geometry" />
        </mxCell>
        <mxCell id="KjTRPkX4YbcrVPD_oOcE-130" value="Telefonszám" style="ellipse;whiteSpace=wrap;html=1;fontSize=11;" parent="1" vertex="1">
          <mxGeometry x="606.25" y="520" width="70" height="30" as="geometry" />
        </mxCell>
        <mxCell id="KjTRPkX4YbcrVPD_oOcE-131" value="" style="ellipse;whiteSpace=wrap;html=1;fillColor=none;" parent="1" vertex="1">
          <mxGeometry x="600" y="513.75" width="82.5" height="42.5" as="geometry" />
        </mxCell>
        <mxCell id="KjTRPkX4YbcrVPD_oOcE-132" value="" style="rounded=0;whiteSpace=wrap;html=1;" parent="1" vertex="1">
          <mxGeometry x="621.25" y="585" width="40" height="60" as="geometry" />
        </mxCell>
        <mxCell id="KjTRPkX4YbcrVPD_oOcE-133" value="" style="endArrow=none;html=1;rounded=0;" parent="1" source="KjTRPkX4YbcrVPD_oOcE-132" target="KjTRPkX4YbcrVPD_oOcE-131" edge="1">
          <mxGeometry width="50" height="50" relative="1" as="geometry">
            <mxPoint x="496.25" y="600" as="sourcePoint" />
            <mxPoint x="546.25" y="550" as="targetPoint" />
          </mxGeometry>
        </mxCell>
        <mxCell id="KjTRPkX4YbcrVPD_oOcE-134" value="" style="endArrow=none;html=1;rounded=0;" parent="1" source="KjTRPkX4YbcrVPD_oOcE-17" target="KjTRPkX4YbcrVPD_oOcE-124" edge="1">
          <mxGeometry width="50" height="50" relative="1" as="geometry">
            <mxPoint x="680" y="550" as="sourcePoint" />
            <mxPoint x="730" y="500" as="targetPoint" />
          </mxGeometry>
        </mxCell>
        <mxCell id="KjTRPkX4YbcrVPD_oOcE-135" value="" style="endArrow=none;html=1;rounded=0;" parent="1" source="KjTRPkX4YbcrVPD_oOcE-131" target="KjTRPkX4YbcrVPD_oOcE-17" edge="1">
          <mxGeometry width="50" height="50" relative="1" as="geometry">
            <mxPoint x="680" y="550" as="sourcePoint" />
            <mxPoint x="730" y="500" as="targetPoint" />
          </mxGeometry>
        </mxCell>
        <mxCell id="KjTRPkX4YbcrVPD_oOcE-136" value="" style="endArrow=none;html=1;rounded=0;" parent="1" source="KjTRPkX4YbcrVPD_oOcE-127" target="KjTRPkX4YbcrVPD_oOcE-17" edge="1">
          <mxGeometry width="50" height="50" relative="1" as="geometry">
            <mxPoint x="680" y="550" as="sourcePoint" />
            <mxPoint x="730" y="500" as="targetPoint" />
          </mxGeometry>
        </mxCell>
        <mxCell id="KjTRPkX4YbcrVPD_oOcE-137" value="Vezetéknév" style="ellipse;whiteSpace=wrap;html=1;fontSize=10;" parent="1" vertex="1">
          <mxGeometry x="777" y="680" width="70" height="30" as="geometry" />
        </mxCell>
        <mxCell id="KjTRPkX4YbcrVPD_oOcE-138" value="" style="rounded=0;whiteSpace=wrap;html=1;" parent="1" vertex="1">
          <mxGeometry x="792" y="745" width="40" height="60" as="geometry" />
        </mxCell>
        <mxCell id="KjTRPkX4YbcrVPD_oOcE-139" value="" style="endArrow=none;html=1;rounded=0;" parent="1" source="KjTRPkX4YbcrVPD_oOcE-138" target="KjTRPkX4YbcrVPD_oOcE-137" edge="1">
          <mxGeometry width="50" height="50" relative="1" as="geometry">
            <mxPoint x="784.5" y="760" as="sourcePoint" />
            <mxPoint x="834.5" y="710" as="targetPoint" />
          </mxGeometry>
        </mxCell>
        <mxCell id="KjTRPkX4YbcrVPD_oOcE-140" value="Keresztnév" style="ellipse;whiteSpace=wrap;html=1;fontSize=10;" parent="1" vertex="1">
          <mxGeometry x="877" y="680" width="70" height="30" as="geometry" />
        </mxCell>
        <mxCell id="KjTRPkX4YbcrVPD_oOcE-141" value="" style="rounded=0;whiteSpace=wrap;html=1;" parent="1" vertex="1">
          <mxGeometry x="892" y="745" width="40" height="60" as="geometry" />
        </mxCell>
        <mxCell id="KjTRPkX4YbcrVPD_oOcE-142" value="" style="endArrow=none;html=1;rounded=0;" parent="1" source="KjTRPkX4YbcrVPD_oOcE-141" target="KjTRPkX4YbcrVPD_oOcE-140" edge="1">
          <mxGeometry width="50" height="50" relative="1" as="geometry">
            <mxPoint x="884.5" y="760" as="sourcePoint" />
            <mxPoint x="934.5" y="710" as="targetPoint" />
          </mxGeometry>
        </mxCell>
        <mxCell id="KjTRPkX4YbcrVPD_oOcE-143" value="" style="endArrow=none;html=1;rounded=0;" parent="1" source="KjTRPkX4YbcrVPD_oOcE-137" target="KjTRPkX4YbcrVPD_oOcE-127" edge="1">
          <mxGeometry width="50" height="50" relative="1" as="geometry">
            <mxPoint x="760" y="600" as="sourcePoint" />
            <mxPoint x="810" y="550" as="targetPoint" />
          </mxGeometry>
        </mxCell>
        <mxCell id="KjTRPkX4YbcrVPD_oOcE-144" value="" style="endArrow=none;html=1;rounded=0;" parent="1" source="KjTRPkX4YbcrVPD_oOcE-140" target="KjTRPkX4YbcrVPD_oOcE-127" edge="1">
          <mxGeometry width="50" height="50" relative="1" as="geometry">
            <mxPoint x="760" y="600" as="sourcePoint" />
            <mxPoint x="810" y="550" as="targetPoint" />
          </mxGeometry>
        </mxCell>
        <mxCell id="KjTRPkX4YbcrVPD_oOcE-145" value="Olvasó_ID" style="rhombus;whiteSpace=wrap;html=1;fontSize=8;" parent="1" vertex="1">
          <mxGeometry x="932" y="400.31" width="50" height="50" as="geometry" />
        </mxCell>
        <mxCell id="KjTRPkX4YbcrVPD_oOcE-146" value="Tagdíj_ID" style="rhombus;whiteSpace=wrap;html=1;fontSize=8;" parent="1" vertex="1">
          <mxGeometry x="1180" y="398.75" width="50" height="50" as="geometry" />
        </mxCell>
        <mxCell id="KjTRPkX4YbcrVPD_oOcE-147" value="" style="edgeStyle=segmentEdgeStyle;endArrow=classic;html=1;curved=0;rounded=0;endSize=8;startSize=8;dashed=1;" parent="1" source="KjTRPkX4YbcrVPD_oOcE-145" target="KjTRPkX4YbcrVPD_oOcE-119" edge="1">
          <mxGeometry width="50" height="50" relative="1" as="geometry">
            <mxPoint x="910" y="610" as="sourcePoint" />
            <mxPoint x="960" y="560" as="targetPoint" />
            <Array as="points">
              <mxPoint x="957" y="830" />
              <mxPoint x="580" y="830" />
              <mxPoint x="580" y="480" />
              <mxPoint x="658" y="480" />
            </Array>
          </mxGeometry>
        </mxCell>
        <mxCell id="KjTRPkX4YbcrVPD_oOcE-148" value="" style="endArrow=none;html=1;rounded=0;" parent="1" source="KjTRPkX4YbcrVPD_oOcE-18" target="KjTRPkX4YbcrVPD_oOcE-145" edge="1">
          <mxGeometry width="50" height="50" relative="1" as="geometry">
            <mxPoint x="910" y="610" as="sourcePoint" />
            <mxPoint x="960" y="560" as="targetPoint" />
          </mxGeometry>
        </mxCell>
        <mxCell id="KjTRPkX4YbcrVPD_oOcE-149" value="" style="endArrow=none;html=1;rounded=0;" parent="1" source="KjTRPkX4YbcrVPD_oOcE-18" target="KjTRPkX4YbcrVPD_oOcE-146" edge="1">
          <mxGeometry width="50" height="50" relative="1" as="geometry">
            <mxPoint x="910" y="610" as="sourcePoint" />
            <mxPoint x="960" y="560" as="targetPoint" />
          </mxGeometry>
        </mxCell>
        <mxCell id="KjTRPkX4YbcrVPD_oOcE-150" value="Dátum" style="ellipse;whiteSpace=wrap;html=1;fontSize=11;" parent="1" vertex="1">
          <mxGeometry x="978" y="520" width="70" height="30" as="geometry" />
        </mxCell>
        <mxCell id="KjTRPkX4YbcrVPD_oOcE-151" value="" style="rounded=0;whiteSpace=wrap;html=1;" parent="1" vertex="1">
          <mxGeometry x="993" y="585" width="40" height="60" as="geometry" />
        </mxCell>
        <mxCell id="KjTRPkX4YbcrVPD_oOcE-152" value="" style="endArrow=none;html=1;rounded=0;" parent="1" source="KjTRPkX4YbcrVPD_oOcE-151" target="KjTRPkX4YbcrVPD_oOcE-150" edge="1">
          <mxGeometry width="50" height="50" relative="1" as="geometry">
            <mxPoint x="985.5" y="600" as="sourcePoint" />
            <mxPoint x="1035.5" y="550" as="targetPoint" />
          </mxGeometry>
        </mxCell>
        <mxCell id="KjTRPkX4YbcrVPD_oOcE-153" value="Kedvezmenyes" style="ellipse;whiteSpace=wrap;html=1;fontSize=9;" parent="1" vertex="1">
          <mxGeometry x="1070.5" y="520" width="70" height="30" as="geometry" />
        </mxCell>
        <mxCell id="KjTRPkX4YbcrVPD_oOcE-154" value="" style="rounded=0;whiteSpace=wrap;html=1;" parent="1" vertex="1">
          <mxGeometry x="1085.5" y="585" width="40" height="60" as="geometry" />
        </mxCell>
        <mxCell id="KjTRPkX4YbcrVPD_oOcE-155" value="" style="endArrow=none;html=1;rounded=0;" parent="1" source="KjTRPkX4YbcrVPD_oOcE-154" target="KjTRPkX4YbcrVPD_oOcE-153" edge="1">
          <mxGeometry width="50" height="50" relative="1" as="geometry">
            <mxPoint x="1078" y="600" as="sourcePoint" />
            <mxPoint x="1128" y="550" as="targetPoint" />
          </mxGeometry>
        </mxCell>
        <mxCell id="KjTRPkX4YbcrVPD_oOcE-156" value="FizetésiMód" style="ellipse;whiteSpace=wrap;html=1;fontSize=11;" parent="1" vertex="1">
          <mxGeometry x="1170.5" y="520" width="70" height="30" as="geometry" />
        </mxCell>
        <mxCell id="KjTRPkX4YbcrVPD_oOcE-157" value="" style="rounded=0;whiteSpace=wrap;html=1;" parent="1" vertex="1">
          <mxGeometry x="1185.5" y="585" width="40" height="60" as="geometry" />
        </mxCell>
        <mxCell id="KjTRPkX4YbcrVPD_oOcE-158" value="" style="endArrow=none;html=1;rounded=0;" parent="1" source="KjTRPkX4YbcrVPD_oOcE-157" target="KjTRPkX4YbcrVPD_oOcE-156" edge="1">
          <mxGeometry width="50" height="50" relative="1" as="geometry">
            <mxPoint x="1178" y="600" as="sourcePoint" />
            <mxPoint x="1228" y="550" as="targetPoint" />
          </mxGeometry>
        </mxCell>
        <mxCell id="KjTRPkX4YbcrVPD_oOcE-159" value="" style="endArrow=none;html=1;rounded=0;" parent="1" source="KjTRPkX4YbcrVPD_oOcE-18" target="KjTRPkX4YbcrVPD_oOcE-150" edge="1">
          <mxGeometry width="50" height="50" relative="1" as="geometry">
            <mxPoint x="820" y="610" as="sourcePoint" />
            <mxPoint x="870" y="560" as="targetPoint" />
          </mxGeometry>
        </mxCell>
        <mxCell id="KjTRPkX4YbcrVPD_oOcE-160" value="" style="endArrow=none;html=1;rounded=0;" parent="1" source="KjTRPkX4YbcrVPD_oOcE-153" target="KjTRPkX4YbcrVPD_oOcE-18" edge="1">
          <mxGeometry width="50" height="50" relative="1" as="geometry">
            <mxPoint x="820" y="610" as="sourcePoint" />
            <mxPoint x="870" y="560" as="targetPoint" />
          </mxGeometry>
        </mxCell>
        <mxCell id="KjTRPkX4YbcrVPD_oOcE-161" value="" style="endArrow=none;html=1;rounded=0;" parent="1" source="KjTRPkX4YbcrVPD_oOcE-156" target="KjTRPkX4YbcrVPD_oOcE-18" edge="1">
          <mxGeometry width="50" height="50" relative="1" as="geometry">
            <mxPoint x="930" y="610" as="sourcePoint" />
            <mxPoint x="980" y="560" as="targetPoint" />
          </mxGeometry>
        </mxCell>
        <mxCell id="KjTRPkX4YbcrVPD_oOcE-162" value="Év" style="ellipse;whiteSpace=wrap;html=1;fontSize=11;" parent="1" vertex="1">
          <mxGeometry x="1311.25" y="520" width="70" height="30" as="geometry" />
        </mxCell>
        <mxCell id="KjTRPkX4YbcrVPD_oOcE-163" value="" style="rounded=0;whiteSpace=wrap;html=1;" parent="1" vertex="1">
          <mxGeometry x="1326.25" y="585" width="40" height="60" as="geometry" />
        </mxCell>
        <mxCell id="KjTRPkX4YbcrVPD_oOcE-164" value="" style="endArrow=none;html=1;rounded=0;" parent="1" source="KjTRPkX4YbcrVPD_oOcE-163" target="KjTRPkX4YbcrVPD_oOcE-162" edge="1">
          <mxGeometry width="50" height="50" relative="1" as="geometry">
            <mxPoint x="1318.75" y="600" as="sourcePoint" />
            <mxPoint x="1368.75" y="550" as="targetPoint" />
          </mxGeometry>
        </mxCell>
        <mxCell id="KjTRPkX4YbcrVPD_oOcE-165" value="Összeg" style="ellipse;whiteSpace=wrap;html=1;fontSize=9;" parent="1" vertex="1">
          <mxGeometry x="1403.75" y="520" width="70" height="30" as="geometry" />
        </mxCell>
        <mxCell id="KjTRPkX4YbcrVPD_oOcE-166" value="" style="rounded=0;whiteSpace=wrap;html=1;" parent="1" vertex="1">
          <mxGeometry x="1418.75" y="585" width="40" height="60" as="geometry" />
        </mxCell>
        <mxCell id="KjTRPkX4YbcrVPD_oOcE-167" value="" style="endArrow=none;html=1;rounded=0;entryX=0.5;entryY=1;entryDx=0;entryDy=0;" parent="1" source="KjTRPkX4YbcrVPD_oOcE-166" target="KjTRPkX4YbcrVPD_oOcE-165" edge="1">
          <mxGeometry width="50" height="50" relative="1" as="geometry">
            <mxPoint x="1411.25" y="600" as="sourcePoint" />
            <mxPoint x="1461.25" y="550" as="targetPoint" />
          </mxGeometry>
        </mxCell>
        <mxCell id="KjTRPkX4YbcrVPD_oOcE-168" value="Kedvezmény" style="ellipse;whiteSpace=wrap;html=1;fontSize=11;" parent="1" vertex="1">
          <mxGeometry x="1503.75" y="520" width="70" height="30" as="geometry" />
        </mxCell>
        <mxCell id="KjTRPkX4YbcrVPD_oOcE-169" value="" style="rounded=0;whiteSpace=wrap;html=1;" parent="1" vertex="1">
          <mxGeometry x="1518.75" y="585" width="40" height="60" as="geometry" />
        </mxCell>
        <mxCell id="KjTRPkX4YbcrVPD_oOcE-170" value="" style="endArrow=none;html=1;rounded=0;" parent="1" source="KjTRPkX4YbcrVPD_oOcE-169" target="KjTRPkX4YbcrVPD_oOcE-168" edge="1">
          <mxGeometry width="50" height="50" relative="1" as="geometry">
            <mxPoint x="1511.25" y="600" as="sourcePoint" />
            <mxPoint x="1561.25" y="550" as="targetPoint" />
          </mxGeometry>
        </mxCell>
        <mxCell id="KjTRPkX4YbcrVPD_oOcE-171" value="" style="endArrow=none;html=1;rounded=0;" parent="1" source="KjTRPkX4YbcrVPD_oOcE-19" target="KjTRPkX4YbcrVPD_oOcE-162" edge="1">
          <mxGeometry width="50" height="50" relative="1" as="geometry">
            <mxPoint x="1220" y="610" as="sourcePoint" />
            <mxPoint x="1270" y="560" as="targetPoint" />
          </mxGeometry>
        </mxCell>
        <mxCell id="KjTRPkX4YbcrVPD_oOcE-172" value="" style="endArrow=none;html=1;rounded=0;" parent="1" source="KjTRPkX4YbcrVPD_oOcE-19" target="KjTRPkX4YbcrVPD_oOcE-165" edge="1">
          <mxGeometry width="50" height="50" relative="1" as="geometry">
            <mxPoint x="1220" y="610" as="sourcePoint" />
            <mxPoint x="1270" y="560" as="targetPoint" />
          </mxGeometry>
        </mxCell>
        <mxCell id="KjTRPkX4YbcrVPD_oOcE-173" value="" style="endArrow=none;html=1;rounded=0;" parent="1" source="KjTRPkX4YbcrVPD_oOcE-168" target="KjTRPkX4YbcrVPD_oOcE-19" edge="1">
          <mxGeometry width="50" height="50" relative="1" as="geometry">
            <mxPoint x="1220" y="610" as="sourcePoint" />
            <mxPoint x="1270" y="560" as="targetPoint" />
          </mxGeometry>
        </mxCell>
        <mxCell id="KjTRPkX4YbcrVPD_oOcE-174" value="Tagdíj_ID" style="rhombus;whiteSpace=wrap;html=1;fontSize=8;" parent="1" vertex="1">
          <mxGeometry x="1580" y="397.5" width="50" height="50" as="geometry" />
        </mxCell>
        <mxCell id="KjTRPkX4YbcrVPD_oOcE-175" value="" style="endArrow=none;html=1;rounded=0;" parent="1" source="KjTRPkX4YbcrVPD_oOcE-174" target="KjTRPkX4YbcrVPD_oOcE-19" edge="1">
          <mxGeometry width="50" height="50" relative="1" as="geometry">
            <mxPoint x="1220" y="610" as="sourcePoint" />
            <mxPoint x="1270" y="560" as="targetPoint" />
          </mxGeometry>
        </mxCell>
        <mxCell id="KjTRPkX4YbcrVPD_oOcE-176" value="" style="edgeStyle=segmentEdgeStyle;endArrow=classic;html=1;curved=0;rounded=0;endSize=8;startSize=8;dashed=1;" parent="1" source="KjTRPkX4YbcrVPD_oOcE-146" target="KjTRPkX4YbcrVPD_oOcE-174" edge="1">
          <mxGeometry width="50" height="50" relative="1" as="geometry">
            <mxPoint x="1220" y="610" as="sourcePoint" />
            <mxPoint x="1270" y="560" as="targetPoint" />
            <Array as="points">
              <mxPoint x="1280" y="424" />
              <mxPoint x="1280" y="830" />
              <mxPoint x="1605" y="830" />
            </Array>
          </mxGeometry>
        </mxCell>
      </root>
    </mxGraphModel>
  </diagram>
</mxfile>
